<svg xmlns="http://www.w3.org/2000/svg" width="17.268" height="22.529" viewBox="0 0 17.268 22.529">
  <g transform="translate(0 0)">
    <path d="M1.577.932C.029,1.934-.27,5.083.31,7.634a23.1,23.1,0,0,0,3.043,7.177,23.977,23.977,0,0,0,5.313,5.717c2.093,1.583,5.084,2.586,6.632,1.566A8.107,8.107,0,0,0,17.3,19.948l-.827-1.284L14.19,15.145c-.176-.264-1.231-.018-1.777.281a6.955,6.955,0,0,0-1.407,1.53c-.493.281-.915,0-1.794-.4a12.069,12.069,0,0,1-3.254-3.43A9.419,9.419,0,0,1,4.145,8.76c-.018-1.179-.106-1.46.369-1.812A5.258,5.258,0,0,0,6.485,6.3c.686-.493,1.161-1.249.985-1.513L5.183,1.266,4.339-.018A7.714,7.714,0,0,0,1.577.932Z" transform="translate(-0.035 0.022)" fill="#fff"/>
  </g>
</svg>
