<svg xmlns="http://www.w3.org/2000/svg" width="40" height="40" viewBox="0 0 40 40">
  <g transform="translate(-979.778 -979.889)">
    <path d="M999.258,996.752a3.137,3.137,0,1,0,3.137,3.137h0A3.141,3.141,0,0,0,999.258,996.752Z" fill="#fff"/>
    <path d="M1011.111,979.889H988.445a8.667,8.667,0,0,0-8.667,8.667v22.666a8.667,8.667,0,0,0,8.667,8.667h22.666a8.667,8.667,0,0,0,8.667-8.667V988.556A8.667,8.667,0,0,0,1011.111,979.889Zm.872,24.487a5.311,5.311,0,0,1-4.763,3.831,4.784,4.784,0,0,1-4.393-2.9l-.059-.138-.127.08a6.348,6.348,0,1,1-.386-10.953l.179.1.01-.2a.518.518,0,0,1,.517-.494h2.411a.52.52,0,0,1,.519.521v9.193a1.333,1.333,0,0,0,1.332,1.331c.539,0,1.214-.677,1.505-1.509a10.2,10.2,0,0,0,.6-3.349,9.551,9.551,0,1,0-6.579,9.079l.777-.274h0a.52.52,0,0,1,.655.334l.744,2.292a.525.525,0,0,1-.339.658l-.773.272a13,13,0,1,1,8.966-12.36A13.6,13.6,0,0,1,1011.983,1004.376Z" fill="#fff"/>
  </g>
</svg>
