<svg xmlns="http://www.w3.org/2000/svg" width="40" height="40" viewBox="0 0 40 40">
  <g transform="translate(-329.675 -4.079)">
    <path d="M349.675,7.683c5.34,0,5.973.02,8.082.117a11.07,11.07,0,0,1,3.714.689,6.623,6.623,0,0,1,3.8,3.8A11.067,11.067,0,0,1,365.955,16c.1,2.109.117,2.741.117,8.082s-.02,5.973-.117,8.082a11.068,11.068,0,0,1-.689,3.714,6.623,6.623,0,0,1-3.8,3.8,11.07,11.07,0,0,1-3.714.689c-2.109.1-2.741.117-8.082.117s-5.973-.02-8.082-.117a11.069,11.069,0,0,1-3.714-.689,6.624,6.624,0,0,1-3.8-3.8,11.068,11.068,0,0,1-.689-3.714c-.1-2.109-.117-2.741-.117-8.082s.02-5.973.117-8.082a11.067,11.067,0,0,1,.689-3.714,6.623,6.623,0,0,1,3.8-3.8,11.069,11.069,0,0,1,3.714-.689c2.109-.1,2.741-.117,8.082-.117m0-3.6c-5.432,0-6.113.023-8.246.12a14.68,14.68,0,0,0-4.855.93,10.227,10.227,0,0,0-5.849,5.849,14.678,14.678,0,0,0-.93,4.855c-.1,2.133-.12,2.814-.12,8.246s.023,6.113.12,8.246a14.678,14.678,0,0,0,.93,4.855,10.227,10.227,0,0,0,5.849,5.849,14.68,14.68,0,0,0,4.855.93c2.133.1,2.814.12,8.246.12s6.113-.023,8.246-.12a14.68,14.68,0,0,0,4.855-.93,10.227,10.227,0,0,0,5.849-5.849,14.68,14.68,0,0,0,.93-4.855c.1-2.133.12-2.814.12-8.246s-.023-6.113-.12-8.246a14.68,14.68,0,0,0-.93-4.855,10.227,10.227,0,0,0-5.849-5.849,14.68,14.68,0,0,0-4.855-.93c-2.133-.1-2.814-.12-8.246-.12Z" fill="#fff"/>
    <path d="M459.826,126.635a7.595,7.595,0,1,0,7.595,7.595A7.595,7.595,0,0,0,459.826,126.635Zm0,12.524a4.93,4.93,0,1,1,4.93-4.93A4.93,4.93,0,0,1,459.826,139.16Z" transform="translate(-110.151 -110.151)" fill="#fff"/>
    <circle cx="3.06" cy="3.06" r="3.06" transform="translate(356.891 10.743)" fill="#fff"/>
  </g>
</svg>
