<svg xmlns="http://www.w3.org/2000/svg" width="40" height="40" viewBox="0 0 40 40">
  <path d="M-387,10a19.994,19.994,0,0,1-20,20,19.994,19.994,0,0,1-20-20,19.994,19.994,0,0,1,20-20A19.994,19.994,0,0,1-387,10Zm-23.66,10.55A13.627,13.627,0,0,0-396.94,6.83c0-.21,0-.42-.01-.62a9.879,9.879,0,0,0,2.41-2.5,9.787,9.787,0,0,1-2.77.76,4.819,4.819,0,0,0,2.12-2.67,9.765,9.765,0,0,1-3.06,1.17,4.8,4.8,0,0,0-3.52-1.52,4.823,4.823,0,0,0-4.82,4.82,4.419,4.419,0,0,0,.13,1.1,13.679,13.679,0,0,1-9.94-5.04,4.837,4.837,0,0,0-.65,2.42,4.8,4.8,0,0,0,2.15,4.01,4.737,4.737,0,0,1-2.18-.6v.06a4.827,4.827,0,0,0,3.87,4.73,4.807,4.807,0,0,1-1.27.17,4.6,4.6,0,0,1-.91-.09,4.815,4.815,0,0,0,4.5,3.35,9.693,9.693,0,0,1-5.99,2.06,8.768,8.768,0,0,1-1.15-.07,13.435,13.435,0,0,0,7.37,2.18" transform="translate(427 10)" fill="#fff"/>
</svg>
