<svg xmlns="http://www.w3.org/2000/svg" width="40" height="40" viewBox="0 0 40 40">
  <g transform="translate(732 148)">
    <path d="M-703-127.878A20.061,20.061,0,0,0-723-148a20.061,20.061,0,0,0-20,20.122A20.09,20.09,0,0,0-726.125-108v-14.061H-731.2v-5.817h5.078v-4.433c0-5.043,2.986-7.829,7.554-7.829a30.575,30.575,0,0,1,4.477.393v4.952h-2.522c-2.484,0-3.259,1.551-3.259,3.142v3.775h5.547l-.887,5.817h-4.66V-108A20.09,20.09,0,0,0-703-127.878Z" transform="translate(11)" fill="#fff"/>
  </g>
</svg>
